<svg xmlns="http://www.w3.org/2000/svg" viewBox="0 0 128 128">
  <circle cx="64" cy="64" r="64" fill="#d6deff"/>
  <path fill="#1e1e1e" d="M51.5 50.071H41Q41 39.893 47.964 34q6.965-6 18.322-6 11.571 0 18.107 5.571 6.536 5.465 6.536 16.5 0 4.715-2.358 8.143-2.25 3.322-5.464 5.465-3.214 2.035-6.536 4.178Q73.357 70 71 73.75q-2.25 3.643-2.25 8.893v1.821h-10.5v-1.821q0-6.643 2.25-11.357 2.25-4.822 5.464-7.393 3.215-2.679 6.429-4.607 3.321-2.036 5.571-4.393 2.25-2.464 2.25-5.464 0-6.215-3.643-9.643-3.535-3.536-10.285-3.536-7.072 0-10.822 3.857-3.75 3.857-3.964 9.964zm5.786 42.108H69.82V103H57.286Z" />
</svg>