<svg xmlns="http://www.w3.org/2000/svg" viewBox="0 0 128 128">
  <circle cx="64" cy="64" r="64" fill="#d6deff"/>
  <path fill="#1e1e1e" d="M58.853 81.838v-.676q.07-6.609 1.315-10.517 1.279-3.909 3.624-6.325 2.345-2.416 5.65-4.406 2.132-1.35 3.837-3.02 1.706-1.67 2.7-3.838.996-2.168.996-4.797 0-3.163-1.493-5.472-1.492-2.31-3.98-3.553-2.451-1.28-5.472-1.28-2.736 0-5.223 1.137-2.487 1.137-4.122 3.554-1.634 2.38-1.883 6.147H44q.249-6.396 3.234-10.802 2.984-4.442 7.888-6.716Q60.06 29 66.03 29q6.539 0 11.442 2.452 4.904 2.416 7.604 6.787 2.736 4.335 2.736 10.127 0 3.98-1.243 7.177-1.244 3.163-3.554 5.65-2.274 2.487-5.472 4.406-3.02 1.883-4.903 3.909-1.848 2.025-2.7 4.797-.854 2.771-.925 6.857v.676zm5.365 21.604q-2.913 0-5.01-2.061-2.096-2.097-2.096-5.046 0-2.914 2.096-4.975 2.097-2.096 5.01-2.096 2.878 0 4.975 2.096 2.132 2.061 2.132 4.975 0 1.954-.995 3.589-.96 1.599-2.558 2.558-1.6.96-3.554.96z" />
</svg>