<svg xmlns="http://www.w3.org/2000/svg" viewBox="0 0 66.997 21.696">
  <path fill="#d6deff" d="M0 0h66.997v21.696H0z"/>
  <path fill="#ff2854" d="m41 16.906-.01.03c.01-.02.02-.03.01-.03zm2.793.27h-.01c-.02.04-.01.03.01 0zm-18.01-.58-.06-.04c.02.04.04.05.06.04zm-3.774.09zm1.742.45.01.03c0-.02 0-.03-.01-.03zm-1.211.12c-.03-.01-.07-.01-.1-.01.02.01.07.01.1.01zm-.491-.58c-.01.01-.02.01-.04.02.02-.01.03-.02.04-.02zm3.523.48.05.09a.406.406 0 0 0-.05-.09zm-3.323.18c-.02-.02-.04-.02-.06-.03 0 .02.03.03.06.03zm10.151-.02c-.01.01-.02.02-.02.03.03-.01.03-.02.02-.03zm-4.004-.1h-.01s.01.01.02.01zm1.171 0-.02.02c.02-.01.02-.01.02-.02zm-2.052.09c-.01.01-.03.02-.04.03zm18.81-.53c-.1-.06-.47-.12-.58.03-.02-.01.01-.03.02-.04-.09.02-.22.01-.36 0-.14-.01-.29-.02-.421 0-.1.15-.39-.06-.48.14l.05-.04c.09.05-.12.14-.15.19-.08-.12-.01-.1-.1-.2l.11.04-.03-.1c-.31.28-.621-.09-.821.11.01-.01.01-.03.02-.04-.14-.05-.23.08-.33.12-.01-.05.06-.09.11-.13-.241-.03-.641.12-.902.04-.09.07.04.09-.06.15-.08-.02-.14-.07-.04-.11-.23-.12-.76.1-1.111-.02-.18.08-.07.11-.35.16.07-.05-.07-.17.1-.17l.02-.05c-.28-.01-.661-.03-.811.12-.01-.11-.05-.02-.16-.08-.04.01 0 .02.02.02-.1.09-.16-.01-.23.01l.03-.02-.2.07c-.03-.02-.08-.04-.09-.07v.08c-.111 0-.051-.1-.191-.08l.03.06c-.09-.04-.22.04-.24-.05 0-.02.01-.01.04-.01-.13-.12-.35.03-.51-.03l.04.13c-.161.04-.1-.03-.09-.07-.111 0-.131-.04-.271-.06-.07.03-.04.05-.06.08l-.15-.04.1-.07c-.23.18-.561-.04-.721.12-.08-.04.08-.07.03-.1-.26-.09-.6.1-.821 0-.36-.1-.78-.04-1.181-.11l.01.03-.29-.04c-.08.07-.27.03-.401.11.01-.03-.01-.07.02-.09-.12.01-.26.04-.33-.01l.04-.03c-.27-.03-.641-.05-.792.01-.09 0-.09-.06-.11-.1a.822.822 0 0 0-.39.07c-.03-.02-.07-.03-.1-.06l-.06.08c-.06-.01-.01-.07-.06-.09-.25.09-.53-.01-.7-.01l.02.04c-.07.03-.211-.03-.12-.07-.341-.06-.512.12-.962.08-.06-.15-.41.03-.48-.14-.19.04-.32-.03-.451.06 0-.02-.02-.02.01-.03-.08-.06-.33-.02-.53.02l-.01-.05c-.09.12-.421.09-.491.2-.02-.02.04-.05.07-.07-.1-.11-.18.05-.31.02.01-.03-.03-.06 0-.08-.441-.12-1.061.07-1.632-.01-.16 0 .06.12-.15.11-.06-.06.1-.11-.03-.14-.09.07-.13.05-.26.05.02-.04 0-.06.09-.09-.07-.05-.311.09-.451 0 .01.03-.02.05-.05.07-.21.1-.49-.09-.511-.04 0 0-.07.02-.01.03-.08 0-.19-.02-.17-.07-.04.03-.08.08-.14.08l.03-.06c-.04.01-.08.05-.11.06l.06.04c-.09-.05-.26.08-.26-.04h.03l-.17-.05c-.07.05-.13.1-.25.09-.051-.13-.291-.02-.431-.03l.01-.04c-.11.06-.4.04-.35.06-.11 0-.261-.02-.201-.06-.08.01-.27.01-.32.09l-.18-.1c-.1.16-.361-.05-.361.12-.1-.02-.08-.06-.15-.09-.14.09-.28.08-.42.07v-.02c-.14-.01-.31.08-.511.1l-.05-.12c-.1.02-.13.12-.23.1-.02-.02 0-.03.02-.03-.1.03-.23.01-.31-.02-.15.1-.271.07-.391.18-.13-.1.17-.06.06-.16-.22-.04-.44.04-.67.11-.02-.02 0-.04.009-.07 0 0-.12.09-.22.18-.1.1-.19.21-.14.27-.05.09-.12.14.09.2.06-.05.25-.13.29-.04l.01-.09c.26-.06.04.18.36.16l-.07-.03c.06-.01.11-.07.18-.05.02.02-.02.04-.05.06.09-.05.17-.09.26-.14.011.05.011.08-.04.12.251-.02-.06-.16.241-.14.06.04-.02.06-.05.09.14.07.23-.01.38-.06.01.08-.09.07.03.12-.03-.04-.05-.11.05-.12-.04.08.07.04.16.05-.02-.03-.01-.06.02-.08.04-.01.08.01.141.01l-.11-.07c.15-.08.24.03.36.06-.01.01-.03.03-.05.03.12.03.25.09.41.01l-.03.01c.291-.09-.1-.13.24-.22.111.01-.04.26.211.16-.13-.06.16-.17.31-.2l-.15.16c.06 0 .16-.05.2-.03l-.01-.03c-.02-.13.19.01.3-.07-.13.18-.14.15-.16.32.1-.1.22-.19.411-.18l-.15.14c.25.02.55-.19.76-.3-.05.1.03.14-.06.22l.24-.03-.069.11c.1-.12.21-.04.19-.19-.03.02-.02.04-.07.03.01-.04.05-.14.17-.13.09.03-.05.06-.02.1.08-.06.09.03.17-.01l-.08-.06c.06-.09.14-.01.22-.05-.1.04-.07.09-.03.14l-.01-.01c.08-.01.16-.07.2-.02l-.05.12.09-.09c.03.01.06.06 0 .08.281.07-.01-.25.361-.15 0 .05-.04.08-.14.05-.02.07.01.11.11.14v.01c.19 0 .44 0 .56-.08.04.03 0 .06-.04.09.211.04.281-.07.501.01l-.1-.04c.14-.06.4-.08.53.01l-.04.03c.131-.07.351.06.401 0-.06-.04 0-.06-.08-.1l.34-.07.02.12.18-.04c-.04-.05.241.04.251-.07.1.04-.04.09-.08.14.1-.03.11.02.21-.05l.1.11.26-.07c-.01.01 0 .02-.01.03.12-.09.31.06.46-.09-.009.01-.009.01-.009.02.09-.08.29-.02.37 0 .14-.02.06-.1.06-.14.39.04.27.03.601-.09.2.14-.24.21.01.3.04-.06.21-.11.41-.13.18.05.481.09.651.19l-.02-.09.26-.04-.15.12c.04-.03.17-.08.26-.12.27-.07.141.19.351.07.01.01.01.02.02.03.07-.06.24-.03.44-.05l-.07.11-.13-.03c.07.11.21-.01.34 0 .13-.03.07-.13.14-.16.051.01.121-.02.161.01.11.04.01.13-.03.18.1-.11.14-.09.36-.13.01.05-.01.08-.04.09.05-.01.09-.03.12-.08l.07.07c.25.1.26-.2.561-.15-.08.06.26 0 .35.07-.11.01.04.16-.02.23.24.05.1-.13.3-.14l-.089.13c.19-.05.05-.07.24-.11-.05.04.08.04-.03.08.25.02.19.01.41.03l.02-.13c.07-.01.1.05.12.07-.03 0-.08-.01-.07.01.08.121.14-.06.241.05-.02-.04-.05-.1.04-.11-.03.08.14.08.14.12-.06-.06.2-.02.21-.1.1.07-.04.06-.04.111.09-.1.37 0 .46-.06 0 .01.01.01.01.02.12-.06.301-.07.532-.15l-.08.07c.22.04.14-.15.33-.15-.04.11.31 0 .22.12.11-.06.23-.08.31-.17.1.06-.21.14-.06.18l.16-.05.03.06c.01-.04.15-.04.14-.08.02.07.09.12.08.18.1-.02.24.05.331-.01l.01.03c.1-.13.31-.02.36-.15l.06.07c.15-.01.13-.15.2-.18.06 0 .14-.02.2 0-.2.08.101.11.141.16.08 0 .31 0 .37-.07-.1.07-.04.12-.21.13.09.13.26-.02.45-.01v.06c.271-.04.281-.15.401-.25.03.08.01.1-.07.17.18.05.47-.01.67 0 .061.05.02.09-.05.11.211-.06.471.01.601-.12-.05.05.09.03.16.06 0-.03.01-.06.02-.06.13-.06.411-.11.561-.07l-.05.04c.17.01.3-.05.43-.09.13-.04.26-.08.451-.04.07.03-.07.11.07.1.07-.05.04-.15.22-.13l-.01.09.12-.09c-.07-.07-.26-.04-.13-.12.16.08.13-.09.33 0-.04.01-.1.08-.13.12.2.04.341.01.481-.01.14-.03.28-.06.49-.02.2-.08.461-.12.591-.19 0 .09 0 .17-.08.24.18 0 .24-.21.37-.09.07-.13.471-.12.501-.3zm-20.212.51c-.1 0-.19 0-.23.02.02.02.23.06.23-.02zm15.027.22c-.01 0-.03.01-.04.01.01 0 .03 0 .04-.01zm.81-.04a.138.138 0 0 0-.04-.03c0 .03.01.05.04.03zm-8.379-.14Zm4.596.22c.07-.04.1-.07.1-.1-.04.01-.07.03-.1.1zm-1.552-.11c-.01.01-.02.01-.03.02.03-.01.03-.02.03-.02zm-3.284-.06c.07-.04.16-.03.24-.05-.07.02-.19-.03-.24.05zm9.6-.06-.07.06.08-.04zm-.75.06c-.03-.01-.17.03-.13.06.04-.03.09-.05.13-.06zm-2.903-.06-.03.06.07-.05z"/>
  <path fill="#1e1e1e" d="M14.672 6.019v-.494h2.942v.494h-1.186v3.308h-.571V6.019Zm4.1 1.615v1.693h-.554V5.525h.547V6.94h.035q.1-.23.307-.366.206-.135.538-.135.293 0 .512.12.221.12.342.36.122.238.122.594v1.814h-.555V7.58q0-.313-.161-.486-.162-.175-.45-.175-.196 0-.352.084-.154.083-.243.245-.088.16-.088.386zm2.592 1.693V6.476h.555v2.85zm.28-3.291q-.145 0-.249-.097-.102-.098-.102-.234 0-.137.102-.233.104-.099.249-.099.145 0 .247.099.104.096.104.233 0 .136-.104.234-.102.097-.247.097zm3.157 1.136-.502.089q-.032-.097-.101-.184-.067-.087-.182-.143-.115-.055-.288-.055-.235 0-.393.105-.158.104-.158.27 0 .142.106.23.106.087.341.143l.453.104q.394.09.587.28.193.19.193.492 0 .256-.148.456-.147.199-.41.312-.262.113-.608.113-.479 0-.781-.204-.303-.206-.371-.584l.536-.082q.05.21.206.317.156.106.407.106.272 0 .436-.113.163-.115.163-.28 0-.134-.1-.225-.098-.091-.303-.138l-.482-.105q-.4-.091-.59-.29-.19-.198-.19-.503 0-.252.141-.442.141-.189.39-.295.249-.107.57-.107.462 0 .727.2.266.199.351.533zm2.094 2.155V5.525h1.355q.444 0 .735.162.292.161.436.442.145.278.145.627 0 .35-.146.631-.145.278-.439.442-.29.161-.732.161h-.933v-.486h.88q.28 0 .455-.096.175-.099.256-.268.082-.169.082-.384t-.082-.382q-.081-.167-.258-.262-.174-.095-.46-.095h-.72v3.31zm3.852-3.802v3.802h-.555V5.525Zm2.552 2.62v-1.67h.557v2.852h-.546v-.494h-.03q-.098.228-.315.38-.215.15-.537.15-.274 0-.486-.12-.21-.122-.33-.362-.12-.24-.12-.592V6.476h.556v1.746q0 .292.161.465.162.172.42.172.156 0 .31-.078.156-.078.258-.236.104-.157.102-.4Zm2.497 2.31q-.34 0-.585-.089-.243-.089-.397-.235-.154-.147-.23-.322l.476-.196q.05.081.134.172.086.093.23.158.147.065.377.065.316 0 .522-.154.206-.152.206-.486v-.56h-.036q-.05.09-.144.202-.093.111-.256.193-.164.081-.426.081-.337 0-.608-.157-.27-.16-.427-.47-.156-.312-.156-.767 0-.454.154-.78.156-.324.427-.497.27-.174.614-.174.266 0 .429.09.163.086.254.203.093.117.143.206h.04v-.462h.545V9.39q0 .368-.171.604-.17.235-.462.348-.29.114-.653.114zm-.006-1.631q.24 0 .405-.112.166-.113.252-.322.087-.212.087-.507 0-.288-.085-.507-.085-.219-.25-.342-.166-.124-.41-.124-.25 0-.417.13-.167.128-.252.349-.084.22-.084.494 0 .28.086.492.085.211.252.33.169.119.416.119zm2.036.503V6.476h.555v2.85zm.28-3.291q-.144 0-.248-.097-.103-.098-.103-.234 0-.137.103-.233.104-.099.248-.099.145 0 .247.099.104.096.104.233 0 .136-.104.234-.102.097-.247.097zm1.576 1.598v1.693h-.555V6.476h.533v.464h.035q.099-.227.308-.364.212-.138.533-.138.292 0 .51.123.22.12.34.36.121.24.121.592v1.814h-.555V7.58q0-.31-.161-.484-.162-.177-.444-.177-.193 0-.344.084-.148.083-.235.245-.086.16-.086.386zm4.507 0v1.693h-.555V5.525h.548V6.94h.035q.1-.23.306-.366.206-.135.538-.135.294 0 .513.12.22.12.341.36.123.238.123.594v1.814h-.555V7.58q0-.313-.161-.486-.162-.175-.45-.175-.197 0-.352.084-.154.083-.244.245-.087.16-.087.386zM47.61 9.39q-.271 0-.49-.1-.219-.102-.347-.296-.126-.193-.126-.473 0-.241.092-.397.093-.156.251-.247.158-.09.353-.137.195-.047.397-.07l.416-.049q.16-.02.232-.065.072-.044.072-.145v-.013q0-.243-.137-.377-.136-.133-.405-.133-.28 0-.442.124-.16.123-.22.273l-.522-.119q.093-.26.271-.42.18-.16.414-.233.234-.074.492-.074.17 0 .362.04.193.04.36.145.169.106.276.303.108.195.108.506v1.894h-.542v-.39h-.022q-.054.108-.161.212-.108.103-.277.172-.169.069-.405.069zm.12-.446q.231 0 .394-.09.165-.092.25-.238.088-.149.088-.318v-.367q-.03.03-.115.055-.084.025-.191.043l-.21.032-.17.022q-.162.02-.296.07-.132.047-.211.138-.078.09-.078.238 0 .206.152.312.152.103.388.103zm4.162-1.772-.503.089q-.031-.097-.1-.184-.067-.087-.182-.143-.115-.055-.288-.055-.235 0-.393.105-.158.104-.158.27 0 .142.106.23.106.087.341.143l.453.104q.394.09.587.28.193.19.193.492 0 .256-.148.456-.147.199-.41.312-.262.113-.608.113-.479 0-.781-.204-.303-.206-.372-.584l.537-.082q.05.21.206.317.156.106.407.106.272 0 .436-.113.163-.115.163-.28 0-.134-.1-.225-.099-.091-.303-.138l-.482-.105q-.4-.091-.59-.29-.19-.198-.19-.503 0-.252.141-.442.141-.189.39-.295.249-.107.57-.107.462 0 .727.2.266.199.351.533zM21.63 14.353v1.693h-.555v-2.851h.533v.464h.035q.099-.227.308-.364.212-.137.533-.137.292 0 .51.122.22.12.34.36.12.24.12.592v1.814H22.9v-1.747q0-.31-.161-.484-.162-.177-.444-.177-.193 0-.344.084-.148.084-.235.245-.086.16-.086.386zm3.768 1.75q-.4 0-.7-.183-.298-.184-.464-.514-.165-.33-.165-.773t.165-.775q.166-.333.465-.516.299-.184.7-.184.4 0 .699.184.299.183.464.516.165.332.165.775 0 .442-.165.773-.165.33-.464.513-.299.184-.7.184zm.002-.465q.26 0 .43-.138.171-.137.253-.365.084-.229.084-.504 0-.272-.084-.5-.082-.23-.252-.37-.17-.14-.431-.14-.262 0-.434.14-.171.14-.254.37-.082.228-.082.5 0 .275.082.504.083.228.254.365.172.138.434.138zm3.375.408v-3.802h.555v1.413h.033q.048-.089.14-.206.09-.117.252-.204.161-.09.427-.09.345 0 .616.175t.425.503q.156.329.156.791t-.154.793q-.154.328-.424.506-.269.177-.614.177-.26 0-.425-.088-.163-.087-.256-.204-.093-.117-.143-.208h-.046v.444zm.543-1.426q0 .301.088.528.087.226.252.354.165.126.405.126.249 0 .415-.131.168-.134.253-.362.087-.229.087-.515 0-.282-.085-.506-.084-.225-.252-.355-.168-.13-.418-.13-.242 0-.408.125-.166.124-.251.347-.086.222-.086.52zm3.512 1.49q-.27 0-.49-.101-.219-.102-.347-.295-.126-.194-.126-.474 0-.241.093-.397.092-.156.25-.247.158-.09.353-.137.195-.046.397-.07l.416-.049q.16-.02.232-.065.072-.044.072-.145v-.013q0-.243-.137-.376-.135-.134-.404-.134-.28 0-.442.124-.16.123-.221.273l-.521-.119q.092-.26.27-.419.18-.161.414-.234.234-.074.492-.074.17 0 .362.04.193.04.36.145.17.106.277.303.107.195.107.507v1.893h-.542v-.39h-.022q-.054.108-.161.212-.108.104-.277.172-.169.07-.405.07zm.121-.446q.23 0 .394-.091.165-.091.25-.238.088-.148.088-.318v-.367q-.03.03-.116.056-.083.024-.19.042l-.21.032-.171.022q-.162.02-.296.07-.131.047-.211.138-.078.09-.078.238 0 .206.152.312.152.104.388.104zm2.58-1.31v1.692h-.555v-2.851h.533v.464h.035q.099-.227.308-.364.212-.137.533-.137.291 0 .51.122.22.12.34.36.12.24.12.592v1.814H36.8v-1.747q0-.31-.162-.484-.161-.177-.444-.177-.193 0-.343.084-.148.084-.235.245-.086.16-.086.386zm3.122 0v1.692h-.555v-2.851h.533v.464h.035q.099-.227.308-.364.212-.137.533-.137.291 0 .51.122.22.12.34.36.12.24.12.592v1.814h-.554v-1.747q0-.31-.161-.484-.162-.177-.444-.177-.194 0-.344.084-.148.084-.235.245-.086.16-.086.386zm3.796 1.75q-.421 0-.726-.18-.302-.182-.467-.511-.164-.33-.164-.774 0-.438.164-.772.165-.334.46-.522.297-.187.694-.187.241 0 .468.08.226.08.407.25.18.17.283.444.104.27.104.659v.197h-2.266v-.416h1.722q0-.22-.088-.388-.09-.17-.251-.27-.16-.098-.375-.098-.234 0-.408.115-.173.114-.268.297-.093.182-.093.396v.324q0 .286.1.487.103.2.285.306.182.104.425.104.157 0 .287-.045.13-.046.225-.137.095-.09.145-.225l.525.095q-.063.232-.226.407-.162.172-.407.269-.243.095-.555.095zm1.841-.058v-2.851h.537v.453h.03q.077-.23.274-.362.199-.134.45-.134.051 0 .122.004.072.004.113.01v.53q-.033-.01-.119-.02-.085-.013-.17-.013-.197 0-.351.083-.152.082-.242.229-.088.144-.088.33v1.74z"/>
</svg>