<svg xmlns="http://www.w3.org/2000/svg" viewBox="0 0 200 82">
  <path fill="#d6deff" d="M0 0h200v82H0z"/>
  <path fill="#ff2854" d="m129.927 63.59-.038.113c.038-.076.076-.114.038-.114zm10.556 1.02h-.038c-.075.152-.037.114.038 0zm-68.069-2.194-.227-.151c.076.151.151.19.227.151zm-14.265.34zm6.584 1.704.038.113c0-.076 0-.113-.038-.113zm-4.578.454c-.114-.038-.265-.038-.379-.038.076.038.265.038.379.038zM58.3 62.719c-.038.038-.076.038-.152.076.076-.038.114-.076.152-.076zm13.318 1.816.19.34a1.534 1.534 0 0 0-.19-.34zm-12.562.681c-.075-.075-.15-.075-.227-.113 0 .075.114.113.227.113zm38.367-.075c-.037.037-.075.075-.075.113.113-.038.113-.076.075-.113zm-15.134-.379h-.038s.038.038.075.038zm4.427 0-.076.076c.076-.038.076-.038.076-.076zm-7.757.34c-.038.039-.114.076-.151.114zm71.096-2.005c-.378-.227-1.778-.454-2.194.114-.076-.038.038-.114.075-.151-.34.075-.832.037-1.362 0-.53-.038-1.097-.076-1.59 0-.377.567-1.475-.227-1.815.53l.189-.152c.34.19-.454.53-.568.719-.302-.454-.038-.379-.378-.757l.416.151-.113-.378c-1.173 1.06-2.346-.34-3.103.416.038-.038.038-.113.076-.151-.53-.19-.87.303-1.249.454-.038-.19.227-.34.416-.492-.908-.113-2.421.454-3.405.151-.34.265.151.341-.227.568-.303-.076-.53-.265-.152-.416-.87-.454-2.875.378-4.2-.076-.68.303-.264.416-1.324.605.265-.189-.265-.643.379-.643l.075-.189c-1.06-.038-2.497-.113-3.065.454-.037-.416-.189-.076-.605-.303-.151.038 0 .076.076.076-.379.34-.606-.038-.87.038l.113-.076-.757.265c-.113-.076-.302-.151-.34-.265v.303c-.417 0-.19-.378-.72-.303l.114.227c-.34-.151-.832.152-.908-.189 0-.076.038-.038.152-.038-.492-.454-1.325.114-1.93-.113l.151.492c-.605.151-.378-.114-.34-.265-.417 0-.492-.152-1.022-.227-.265.113-.151.189-.227.302l-.568-.15.379-.266c-.87.681-2.119-.151-2.724.454-.303-.151.302-.265.113-.378-.984-.34-2.27.378-3.103 0-1.362-.378-2.95-.151-4.464-.416l.037.113-1.097-.151c-.303.265-1.021.113-1.513.416.037-.113-.038-.265.075-.34-.454.037-.983.15-1.248-.038l.151-.114c-1.022-.113-2.422-.189-2.99.038-.34 0-.34-.227-.415-.378-.606-.038-.984.075-1.476.265-.113-.076-.265-.114-.378-.228l-.227.303c-.227-.038-.038-.265-.227-.34-.946.34-2.006-.038-2.649-.038l.076.151c-.265.114-.795-.113-.454-.265-1.287-.227-1.93.454-3.633.303-.227-.568-1.551.114-1.816-.53-.719.152-1.21-.113-1.703.227 0-.075-.075-.075.038-.113-.302-.227-1.248-.076-2.005.075l-.038-.189c-.34.454-1.59.34-1.854.757-.076-.076.151-.19.265-.265-.379-.416-.681.19-1.173.076.038-.114-.114-.227 0-.303-1.665-.454-4.01.265-6.168-.038-.605 0 .227.454-.567.417-.227-.227.378-.417-.114-.53-.34.265-.492.189-.983.189.075-.151 0-.227.34-.34-.265-.19-1.173.34-1.703 0 .038.113-.075.189-.189.264-.794.379-1.854-.34-1.93-.151 0 0-.264.076-.037.113-.303 0-.72-.075-.644-.264-.15.113-.302.302-.53.302l.114-.227c-.151.038-.302.19-.416.227l.227.152c-.34-.19-.984.302-.984-.152h.114l-.643-.189c-.265.19-.492.379-.946.34-.19-.491-1.098-.075-1.627-.113l.038-.151c-.417.227-1.514.151-1.325.227-.416 0-.984-.076-.757-.227-.302.038-1.021.038-1.21.34l-.681-.378c-.379.605-1.363-.19-1.363.454-.378-.076-.302-.227-.567-.34-.53.34-1.06.302-1.59.264v-.075c-.529-.038-1.172.302-1.929.378l-.19-.454c-.378.076-.491.454-.87.378-.075-.075 0-.113.076-.113-.378.113-.87.038-1.173-.076-.567.379-1.021.265-1.475.681-.492-.378.643-.227.227-.605-.833-.151-1.665.151-2.535.416-.076-.076 0-.151.037-.265 0 0-.454.34-.832.681-.378.379-.719.795-.53 1.022-.189.34-.454.53.34.757.228-.19.947-.492 1.098-.152l.038-.34c.984-.227.151.68 1.362.605l-.265-.113c.227-.038.416-.265.681-.19.076.076-.075.152-.189.227.34-.189.643-.34.984-.53.038.19.038.303-.152.455.946-.076-.227-.606.909-.53.227.151-.076.227-.19.34.53.265.87-.037 1.438-.226.038.302-.34.264.114.454-.114-.152-.19-.417.189-.454-.151.302.265.15.605.189-.075-.114-.038-.227.076-.303.151-.038.303.038.53.038l-.417-.265c.568-.303.909.114 1.363.227-.038.038-.114.114-.19.114.455.113.946.34 1.552.037l-.114.038c1.098-.34-.378-.492.908-.832.417.038-.151.984.795.605-.492-.227.605-.643 1.173-.757l-.568.606c.227 0 .606-.19.757-.114l-.038-.113c-.075-.492.72.038 1.135-.265-.492.681-.53.568-.605 1.21.378-.378.832-.718 1.551-.68l-.567.53c.946.075 2.08-.72 2.875-1.136-.189.379.114.53-.227.833l.908-.114-.264.416c.378-.454.794-.15.719-.718-.114.075-.076.15-.265.113.037-.151.189-.53.643-.492.34.114-.19.227-.076.379.303-.227.34.113.643-.038l-.302-.227c.227-.34.53-.038.832-.19-.378.152-.265.341-.113.53l-.038-.038c.303-.037.605-.264.757-.075l-.19.454.34-.34c.114.037.228.226 0 .302 1.06.265-.037-.946 1.363-.568 0 .19-.151.303-.53.19-.075.264.038.416.417.53v.037c.718 0 1.664 0 2.118-.303.152.114 0 .227-.15.34.794.152 1.059-.264 1.891.039l-.378-.152c.53-.227 1.513-.302 2.005.038l-.151.114c.492-.265 1.324.227 1.513 0-.227-.152 0-.227-.302-.379l1.286-.264.076.454.68-.152c-.15-.189.909.152.947-.265.378.152-.152.34-.303.53.378-.113.416.076.795-.19l.378.417.984-.265c-.038.038 0 .076-.038.114.454-.34 1.173.227 1.74-.34-.037.037-.037.037-.037.075.34-.303 1.097-.076 1.4 0 .53-.076.227-.378.227-.53 1.475.152 1.021.114 2.27-.34.757.53-.908.794.038 1.135.151-.227.794-.416 1.551-.492.681.19 1.816.34 2.46.719l-.076-.34.983-.152-.567.454c.151-.114.643-.303.984-.454 1.021-.265.53.719 1.324.265.038.038.038.075.076.113.265-.227.908-.113 1.665-.189l-.265.416-.492-.113c.265.416.794-.038 1.286 0 .492-.114.265-.492.53-.606.19.038.454-.075.605.038.417.152.038.492-.113.681.378-.416.53-.34 1.362-.492.038.19-.038.303-.151.341.189-.038.34-.114.454-.303l.265.265c.945.379.983-.757 2.118-.567-.302.227.984 0 1.325.264-.416.038.151.606-.076.87.908.19.378-.491 1.135-.529l-.34.492c.719-.19.189-.265.908-.416-.19.151.302.151-.114.302.946.076.72.038 1.552.114l.075-.492c.265-.038.379.19.454.265-.113 0-.302-.038-.265.038.303.454.53-.227.909.189-.076-.151-.19-.379.15-.416-.113.302.53.302.53.454-.226-.227.757-.076.795-.379.379.265-.151.227-.151.417.34-.379 1.4 0 1.74-.227 0 .037.038.037.038.075.454-.227 1.135-.265 2.006-.567l-.303.264c.832.152.53-.567 1.248-.567-.15.416 1.173 0 .833.454.416-.227.87-.303 1.173-.643.378.227-.795.53-.227.68l.605-.188.114.227c.038-.152.567-.152.53-.303.075.265.34.454.302.681.379-.076.908.19 1.249-.038l.038.114c.378-.492 1.173-.076 1.362-.568l.227.265c.567-.038.492-.568.756-.681.227 0 .53-.076.757 0-.757.303.379.416.53.605.303 0 1.173 0 1.4-.265-.378.265-.151.454-.795.492.34.492.984-.075 1.703-.038v.228c1.022-.152 1.06-.568 1.514-.946.113.302.037.378-.265.643.68.189 1.778-.038 2.535 0 .227.189.075.34-.19.416.795-.227 1.779.038 2.27-.454-.188.19.341.113.606.227 0-.113.038-.227.076-.227.492-.227 1.551-.416 2.119-.265l-.19.151c.644.038 1.136-.189 1.628-.34.491-.151.983-.303 1.702-.151.265.113-.265.416.265.378.265-.19.151-.568.832-.492l-.037.34.454-.34c-.265-.265-.984-.151-.492-.454.605.303.492-.34 1.248 0-.151.038-.378.303-.492.454.757.151 1.287.038 1.817-.038.53-.113 1.06-.227 1.854-.075.756-.303 1.74-.454 2.232-.72 0 .341 0 .644-.303.909.681 0 .909-.795 1.4-.34.265-.493 1.779-.455 1.892-1.136zm-76.393 1.93c-.379 0-.72 0-.87.076.075.075.87.227.87-.076zm56.793.833c-.037 0-.113.037-.15.037.037 0 .113 0 .15-.037zm3.065-.152c-.038-.038-.075-.076-.151-.113 0 .113.038.189.151.113zm-31.67-.53Zm17.368.833c.265-.151.378-.265.378-.379-.151.038-.265.114-.378.379zm-5.865-.416c-.038.037-.076.037-.113.075.113-.038.113-.075.113-.075zm-12.41-.227c.264-.152.605-.114.907-.19-.264.076-.718-.113-.908.19zm36.285-.227-.264.227.302-.152zm-2.837.227c-.114-.038-.644.113-.492.227.151-.114.34-.19.492-.227zm-10.973-.227-.114.227.265-.19z"/>
  <path fill="#1e1e1e" d="M30 22.441v-1.866h11.12v1.866h-4.483v12.502h-2.161V22.441Zm15.497 6.104v6.398H43.4V20.575h2.07v5.346h.132q.38-.87 1.158-1.382.779-.512 2.034-.512 1.109 0 1.937.456.835.456 1.29 1.36.464.899.464 2.246v6.854h-2.098v-6.602q0-1.185-.61-1.838-.61-.66-1.698-.66-.744 0-1.333.317-.582.315-.92.926-.329.603-.329 1.459zm9.793 6.398V24.167h2.098v10.776zm1.06-12.438q-.547 0-.94-.365-.386-.372-.386-.884 0-.52.386-.884.393-.372.94-.372.547 0 .933.372.393.365.393.884 0 .512-.393.884-.386.365-.933.365zm11.933 4.293-1.9.337q-.12-.365-.38-.695-.252-.33-.687-.54-.435-.21-1.088-.21-.89 0-1.487.4-.596.392-.596 1.017 0 .54.4.87.4.33 1.29.54l1.712.393q1.488.343 2.217 1.059.73.716.73 1.86 0 .967-.561 1.725-.555.75-1.55 1.179-.99.427-2.295.427-1.81 0-2.953-.771-1.144-.779-1.403-2.21l2.027-.309q.19.793.779 1.2.59.4 1.536.4 1.031 0 1.649-.428.617-.435.617-1.06 0-.505-.379-.848-.371-.344-1.143-.52l-1.824-.4q-1.509-.343-2.231-1.094-.716-.75-.716-1.901 0-.954.533-1.67.534-.715 1.474-1.115.94-.407 2.153-.407 1.747 0 2.75.758 1.004.75 1.326 2.013zm7.914 8.145V20.575h5.121q1.677 0 2.778.61 1.102.611 1.649 1.67.547 1.053.547 2.372 0 1.325-.554 2.385-.547 1.052-1.656 1.67-1.101.61-2.77.61h-3.523v-1.838h3.326q1.06 0 1.719-.365.659-.372.968-1.01.308-.639.308-1.452 0-.814-.308-1.446-.309-.631-.975-.989-.66-.358-1.74-.358h-2.722v12.509zm14.557-14.368v14.368h-2.098V20.575Zm9.646 9.899v-6.307h2.105v10.776h-2.063v-1.866h-.112q-.372.863-1.192 1.438-.814.568-2.028.568-1.038 0-1.838-.456-.793-.463-1.249-1.368-.449-.905-.449-2.238v-6.854h2.098v6.602q0 1.101.61 1.754.61.652 1.586.652.589 0 1.171-.295.59-.294.975-.89.393-.597.386-1.516zm9.436 8.734q-1.284 0-2.21-.336-.919-.337-1.501-.891-.582-.555-.87-1.214l1.803-.744q.19.309.505.653.323.35.87.596.554.246 1.424.246 1.193 0 1.972-.583.778-.575.778-1.838V32.98h-.133q-.19.343-.547.764-.351.421-.968.73-.618.309-1.607.309-1.277 0-2.301-.597-1.017-.603-1.614-1.775-.589-1.178-.589-2.897 0-1.719.582-2.947.59-1.227 1.614-1.88 1.024-.66 2.322-.66 1.003 0 1.62.338.618.33.962.771.35.442.54.78h.154v-1.748h2.056v11.015q0 1.389-.646 2.28-.645.89-1.746 1.318-1.095.428-2.47.428zm-.021-6.166q.905 0 1.53-.421.63-.428.954-1.22.33-.8.33-1.916 0-1.087-.323-1.915-.323-.828-.948-1.291-.624-.47-1.543-.47-.947 0-1.578.49-.632.485-.955 1.32-.315.835-.315 1.866 0 1.06.322 1.859.323.8.955 1.249.638.449 1.571.449zm7.696 1.901V24.167h2.098v10.776zm1.06-12.438q-.548 0-.94-.365-.387-.372-.387-.884 0-.52.386-.884.393-.372.94-.372.548 0 .933.372.393.365.393.884 0 .512-.393.884-.385.365-.933.365zm5.956 6.04v6.398h-2.098V24.167h2.013v1.754h.134q.371-.856 1.164-1.375.8-.52 2.014-.52 1.101 0 1.929.464.828.456 1.284 1.36.456.906.456 2.239v6.854h-2.098v-6.602q0-1.171-.61-1.83-.61-.667-1.677-.667-.73 0-1.298.316-.561.315-.89.926-.323.603-.323 1.459zm17.033 0v6.398h-2.097V20.575h2.07v5.346h.132q.38-.87 1.158-1.382.779-.512 2.034-.512 1.109 0 1.937.456.835.456 1.29 1.36.464.899.464 2.246v6.854h-2.098v-6.602q0-1.185-.61-1.838-.61-.66-1.698-.66-.744 0-1.333.317-.582.315-.92.926-.329.603-.329 1.459zm12.93 6.637q-1.025 0-1.852-.38-.828-.385-1.312-1.115-.477-.73-.477-1.789 0-.912.35-1.501.351-.59.947-.933.597-.344 1.333-.52.737-.175 1.502-.266l1.571-.182q.604-.077.877-.246.274-.168.274-.547v-.05q0-.918-.52-1.423-.512-.505-1.529-.505-1.06 0-1.67.47-.603.463-.834 1.03l-1.972-.448q.351-.982 1.025-1.586.68-.61 1.564-.883.884-.281 1.86-.281.645 0 1.367.154.73.148 1.361.547.639.4 1.045 1.144.407.737.407 1.915v7.156h-2.048V33.47h-.084q-.204.407-.61.8-.408.392-1.046.652-.638.26-1.53.26zm.456-1.684q.87 0 1.487-.344.624-.344.947-.898.33-.561.33-1.2v-1.389q-.112.113-.435.21-.316.092-.723.162-.407.063-.793.12-.385.049-.645.084-.61.077-1.115.26-.499.182-.8.525-.295.337-.295.898 0 .779.575 1.179.576.393 1.467.393zm15.728-6.7-1.9.337q-.12-.365-.38-.695-.252-.33-.687-.54-.435-.21-1.088-.21-.89 0-1.487.4-.596.392-.596 1.017 0 .54.4.87.4.33 1.29.54l1.712.393q1.488.343 2.217 1.059.73.716.73 1.86 0 .967-.561 1.725-.555.75-1.55 1.179-.99.427-2.295.427-1.81 0-2.953-.771-1.144-.779-1.404-2.21l2.028-.309q.19.793.779 1.2.589.4 1.536.4 1.031 0 1.649-.428.617-.435.617-1.06 0-.505-.379-.848-.372-.344-1.143-.52l-1.824-.4q-1.509-.343-2.231-1.094-.716-.75-.716-1.901 0-.954.533-1.67.534-.715 1.474-1.115.94-.407 2.153-.407 1.747 0 2.75.758 1.004.75 1.326 2.013zM56.294 53.94v6.398h-2.098V49.562h2.014v1.754h.133q.372-.856 1.165-1.375.8-.519 2.013-.519 1.102 0 1.93.463.827.456 1.283 1.361.456.905.456 2.238v6.854h-2.097v-6.601q0-1.172-.61-1.831-.611-.667-1.677-.667-.73 0-1.298.316-.562.316-.891.926-.323.603-.323 1.46zm14.241 6.616q-1.515 0-2.644-.695-1.13-.694-1.754-1.943-.625-1.249-.625-2.919 0-1.676.625-2.932.624-1.256 1.754-1.95 1.13-.695 2.644-.695 1.516 0 2.645.695 1.13.694 1.754 1.95.624 1.256.624 2.932 0 1.67-.624 2.919T73.18 59.86q-1.13.695-2.645.695zm.007-1.761q.983 0 1.628-.52.645-.518.954-1.381.316-.863.316-1.902 0-1.03-.316-1.894-.309-.87-.954-1.396-.645-.526-1.628-.526-.989 0-1.641.526-.646.526-.961 1.396-.309.863-.309 1.894 0 1.039.309 1.902.315.863.96 1.382.653.519 1.642.519zm12.755 1.543V45.97h2.097v5.34h.126q.183-.337.527-.78.343-.441.954-.771.61-.337 1.613-.337 1.305 0 2.33.66 1.024.659 1.606 1.9.59 1.242.59 2.99 0 1.746-.583 2.995-.582 1.242-1.6 1.915-1.017.667-2.322.667-.982 0-1.606-.33-.618-.33-.968-.772-.351-.442-.54-.786h-.176v1.677zm2.055-5.388q0 1.137.33 1.993.33.856.954 1.34.624.477 1.53.477.94 0 1.57-.498.632-.505.955-1.368.33-.863.33-1.944 0-1.066-.323-1.915-.316-.849-.954-1.34-.632-.491-1.579-.491-.912 0-1.543.47-.624.47-.947 1.312-.323.842-.323 1.964zm13.273 5.627q-1.024 0-1.852-.38-.828-.385-1.312-1.115-.477-.73-.477-1.789 0-.912.351-1.5.35-.59.947-.934.597-.344 1.333-.519.737-.175 1.501-.267l1.572-.182q.603-.077.877-.246.273-.168.273-.547v-.049q0-.919-.519-1.424-.512-.505-1.529-.505-1.06 0-1.67.47-.603.463-.835 1.031l-1.97-.449q.35-.982 1.023-1.585.68-.61 1.565-.884.884-.28 1.859-.28.645 0 1.368.153.73.148 1.36.548.64.4 1.046 1.143.407.737.407 1.915v7.156h-2.048v-1.473h-.085q-.203.407-.61.8-.407.393-1.045.652-.639.26-1.53.26zm.456-1.684q.87 0 1.488-.344.624-.344.947-.898.33-.561.33-1.2v-1.388q-.113.112-.435.21-.316.091-.723.161-.407.064-.793.12-.386.049-.645.084-.61.077-1.116.26-.498.182-.8.526-.294.336-.294.898 0 .778.575 1.178.575.393 1.466.393zm9.752-4.953v6.398h-2.098V49.562h2.014v1.754h.133q.372-.856 1.165-1.375.8-.519 2.013-.519 1.101 0 1.93.463.827.456 1.283 1.361.456.905.456 2.238v6.854h-2.098v-6.601q0-1.172-.61-1.831-.61-.667-1.677-.667-.73 0-1.297.316-.562.316-.891.926-.323.603-.323 1.46zm11.8 0v6.398h-2.098V49.562h2.014v1.754h.133q.372-.856 1.165-1.375.8-.519 2.013-.519 1.101 0 1.93.463.827.456 1.283 1.361.456.905.456 2.238v6.854h-2.097v-6.601q0-1.172-.61-1.831-.611-.667-1.678-.667-.73 0-1.297.316-.562.316-.891.926-.323.603-.323 1.46zm14.347 6.616q-1.593 0-2.743-.68-1.144-.688-1.768-1.93-.618-1.249-.618-2.926 0-1.655.618-2.918.624-1.263 1.74-1.971 1.122-.709 2.623-.709.912 0 1.768.302.856.301 1.537.947.68.645 1.073 1.677.393 1.024.393 2.49v.744h-8.566V54.01h6.51q0-.828-.336-1.466-.337-.645-.948-1.017-.603-.372-1.417-.372-.884 0-1.543.435-.653.428-1.01 1.122-.351.688-.351 1.495v1.227q0 1.08.379 1.838.386.758 1.073 1.158.688.393 1.607.393.596 0 1.087-.169.491-.175.849-.519.358-.343.547-.849l1.986.358q-.239.877-.856 1.537-.61.652-1.537 1.017-.919.358-2.097.358zm6.959-.218V49.562h2.027v1.712h.113q.294-.87 1.038-1.368.75-.505 1.698-.505.196 0 .463.014.273.014.428.035v2.007q-.127-.035-.45-.078-.322-.049-.645-.049-.743 0-1.326.316-.575.309-.912.863-.336.547-.336 1.249v6.58z" />
</svg>