<svg xmlns="http://www.w3.org/2000/svg" viewBox="0 0 120 90">
  <path fill="#d6deff" d="M0 0h120v90H0z"/>
  <path fill="#ff2854" d="m76.986 58.025-.021.063c.02-.042.042-.063.02-.063zm5.857.567h-.021c-.042.084-.021.063.02 0zm-37.766-1.218-.126-.084c.042.084.084.105.126.084zm-7.914.189zm3.652.945.021.063c0-.042 0-.063-.02-.063zm-2.54.252c-.063-.021-.147-.021-.21-.021.042.02.147.02.21.02zm-1.028-1.218c-.021.021-.042.021-.084.042.042-.021.063-.042.084-.042zm7.39 1.008.104.189a.85.85 0 0 0-.105-.19zm-6.97.378c-.042-.042-.084-.042-.126-.063 0 .042.063.063.126.063zm21.286-.042c-.02.02-.042.042-.042.063.063-.021.063-.042.042-.063zm-8.397-.21h-.021s.021.02.042.02zm2.456 0-.042.042c.042-.021.042-.021.042-.042zm-4.303.189c-.021.02-.063.042-.084.063zm39.445-1.113c-.21-.126-.987-.252-1.218.063-.042-.021.021-.063.042-.084-.189.042-.462.021-.755 0-.294-.021-.61-.042-.882 0-.21.315-.819-.126-1.008.294l.105-.084c.19.105-.252.294-.315.399-.168-.252-.02-.21-.21-.42l.231.084-.063-.21c-.65.588-1.301-.189-1.721.23.02-.02.02-.062.042-.083-.294-.105-.483.168-.693.252-.021-.105.126-.19.23-.273-.503-.063-1.343.252-1.888.084-.19.147.084.189-.126.315-.168-.042-.294-.147-.084-.231-.483-.252-1.596.21-2.33-.042-.378.168-.147.23-.735.336.147-.105-.147-.357.21-.357l.042-.105c-.588-.021-1.386-.063-1.7.252-.022-.231-.106-.042-.337-.168-.084.02 0 .042.042.042-.21.189-.336-.021-.482.02l.063-.041-.42.147c-.063-.042-.168-.084-.19-.147v.168c-.23 0-.104-.21-.398-.168l.063.126c-.189-.084-.462.084-.504-.105 0-.042.021-.021.084-.021-.273-.252-.735.063-1.07-.063l.083.273c-.336.084-.21-.063-.189-.147-.23 0-.272-.084-.566-.126-.147.063-.084.105-.126.168l-.315-.084.21-.147c-.483.378-1.176-.084-1.512.252-.168-.084.168-.147.063-.21-.546-.189-1.26.21-1.721 0-.756-.21-1.638-.084-2.477-.231l.02.063-.608-.084c-.168.147-.567.063-.84.23.021-.062-.02-.146.042-.188-.252.021-.546.084-.693-.021l.084-.063c-.566-.063-1.343-.105-1.658.021-.189 0-.189-.126-.23-.21-.337-.02-.547.042-.82.147-.063-.042-.147-.063-.21-.126l-.126.168c-.125-.021-.02-.147-.125-.189-.525.189-1.113-.02-1.47-.02l.042.083c-.147.063-.44-.063-.252-.147-.714-.126-1.07.252-2.015.168-.126-.315-.86.063-1.008-.294-.399.084-.672-.063-.945.126 0-.042-.042-.042.021-.063-.167-.126-.692-.042-1.112.042l-.021-.105c-.19.252-.882.19-1.029.42-.042-.042.084-.105.147-.147-.21-.23-.378.105-.65.042.02-.063-.064-.126 0-.168-.924-.252-2.226.147-3.422-.02-.336 0 .126.251-.315.23-.126-.126.21-.23-.063-.294-.19.147-.273.105-.546.105.042-.084 0-.126.189-.189-.147-.105-.65.19-.945 0 .021.063-.042.105-.105.147-.44.21-1.028-.189-1.07-.084 0 0-.147.042-.021.063-.168 0-.4-.042-.357-.147-.084.063-.168.168-.294.168l.063-.126c-.084.021-.168.105-.231.126l.126.084c-.19-.105-.546.168-.546-.084h.063l-.357-.105c-.147.105-.273.21-.525.19-.105-.274-.608-.043-.902-.064l.02-.084c-.23.126-.84.084-.734.126-.231 0-.546-.042-.42-.126-.168.021-.567.021-.672.19l-.378-.21c-.21.335-.755-.106-.755.251-.21-.042-.168-.126-.315-.189-.294.19-.588.168-.882.147v-.042c-.294-.02-.65.168-1.07.21l-.106-.252c-.21.042-.272.252-.482.21-.042-.042 0-.063.042-.063-.21.063-.483.021-.651-.042-.315.21-.567.147-.819.378-.273-.21.357-.126.126-.336-.462-.084-.924.084-1.406.231-.042-.042 0-.084.02-.147 0 0-.251.189-.461.378-.21.21-.4.44-.294.567-.105.189-.252.294.189.42.126-.105.525-.273.609-.084l.02-.19c.546-.125.085.379.756.337l-.147-.063c.126-.021.231-.147.378-.105.042.042-.042.084-.105.126.19-.105.357-.19.546-.294.021.105.021.168-.084.252.525-.042-.126-.336.504-.294.126.084-.042.126-.105.189.294.147.483-.021.798-.126.02.168-.19.147.063.252-.063-.084-.105-.231.105-.252-.084.168.147.084.335.105-.041-.063-.02-.126.042-.168.084-.021.168.02.294.02l-.23-.146c.314-.168.503.063.755.126-.02.02-.063.063-.105.063.252.063.525.189.86.02l-.062.022c.609-.19-.21-.273.504-.462.23.02-.084.546.44.336-.272-.126.337-.357.651-.42l-.314.336c.125 0 .335-.105.42-.063l-.022-.063c-.042-.273.4.02.63-.147-.273.378-.294.315-.336.672.21-.21.462-.4.861-.378l-.315.294c.525.042 1.155-.4 1.596-.63-.105.21.062.294-.126.462l.503-.063-.147.23c.21-.251.441-.083.4-.398-.064.042-.043.084-.148.063.021-.084.105-.294.357-.273.19.063-.105.126-.042.21.168-.126.19.063.357-.021l-.168-.126c.126-.19.294-.021.462-.105-.21.084-.147.189-.063.294l-.02-.021c.167-.021.335-.147.419-.042l-.105.252.189-.19c.063.022.126.127 0 .169.588.147-.021-.525.756-.315 0 .105-.084.168-.294.105-.042.147.02.23.23.294v.02c.4 0 .924 0 1.176-.167.084.063 0 .126-.084.189.441.084.588-.147 1.05.02l-.21-.083c.294-.126.84-.168 1.113.02l-.084.064c.273-.147.734.126.84 0-.127-.084 0-.126-.169-.21l.714-.147.042.252.378-.084c-.084-.105.504.084.525-.147.21.084-.084.189-.168.294.21-.063.23.042.44-.105l.21.23.547-.146c-.021.02 0 .042-.021.063.251-.19.65.126.965-.19-.02.022-.02.022-.02.043.188-.168.608-.042.776 0 .294-.042.126-.21.126-.294.819.084.567.063 1.26-.19.42.295-.504.442.02.63.084-.125.441-.23.861-.272.378.105 1.008.189 1.365.399l-.042-.19.545-.083-.314.252c.084-.063.356-.168.545-.252.567-.147.294.399.735.147.021.02.021.042.042.063.147-.126.504-.063.924-.105l-.147.23-.273-.062c.147.23.44-.021.714 0 .273-.063.147-.273.294-.336.105.02.252-.042.336.02.23.085.02.274-.063.379.21-.231.293-.19.755-.273.021.105-.02.168-.084.189a.345.345 0 0 0 .252-.168l.147.147c.525.21.546-.42 1.176-.315-.168.126.546 0 .734.147-.23.02.084.336-.042.482.504.105.21-.272.63-.293l-.189.272c.4-.104.105-.146.504-.23-.105.084.168.084-.063.167.525.042.399.021.86.063l.043-.272c.147-.021.21.105.252.147-.063 0-.168-.021-.147.02.168.252.294-.125.504.105-.042-.084-.105-.21.084-.23-.063.167.294.167.294.251-.126-.125.42-.042.44-.21.21.147-.084.126-.084.231.19-.21.777 0 .966-.126 0 .021.021.021.021.042.252-.125.63-.146 1.113-.314l-.168.147c.462.084.294-.315.693-.315-.084.23.65 0 .461.252.231-.126.483-.168.651-.357.21.126-.44.294-.126.378l.336-.105.063.126c.021-.084.315-.084.294-.168.042.147.189.252.168.377.21-.042.504.105.693-.02l.02.062c.21-.272.651-.042.756-.314l.126.147c.315-.021.273-.315.42-.378.126 0 .294-.042.42 0-.42.168.21.23.294.336.168 0 .65 0 .777-.147-.21.147-.084.251-.441.272.189.273.546-.042.944-.02v.125c.567-.084.588-.314.84-.524.063.168.021.21-.147.357.378.104.987-.021 1.407 0 .126.104.042.188-.105.23.44-.126.986.021 1.26-.251-.106.104.188.062.335.125 0-.063.021-.125.042-.125.273-.126.86-.231 1.176-.147l-.105.084c.357.02.63-.105.902-.19.273-.083.546-.167.945-.083.147.063-.147.23.147.21.147-.105.084-.315.462-.273l-.021.189.252-.19c-.147-.146-.546-.083-.273-.251.336.168.273-.19.693 0-.084.02-.21.168-.273.252.42.084.713.02 1.007-.021.294-.063.588-.126 1.029-.042.42-.168.966-.252 1.239-.4 0 .19 0 .358-.168.505.378 0 .503-.441.776-.19.147-.272.987-.251 1.05-.63zm-42.384 1.07c-.21 0-.4 0-.483.043.042.042.483.126.483-.042zm31.51.462c-.021 0-.063.021-.084.021.02 0 .063 0 .084-.02zm1.7-.084c-.02-.02-.042-.042-.084-.062 0 .062.021.104.084.062zm-17.57-.293Zm9.635.461c.147-.084.21-.147.21-.21-.084.021-.147.063-.21.21zm-3.254-.23c-.021.02-.042.02-.063.041.063-.02.063-.042.063-.042zm-6.886-.126c.147-.084.336-.063.504-.105-.147.042-.399-.063-.504.105zm20.132-.126-.147.126.168-.084zm-1.574.126c-.063-.021-.357.063-.273.125a.796.796 0 0 1 .273-.125zm-6.088-.126-.063.126.147-.105z"/>
  <path fill="#1e1e1e" d="M15.443 33.463v-1.118h6.665v1.118H19.42v7.494h-1.296v-7.494zm9.288 3.659v3.835h-1.257v-8.612h1.24v3.204h.08q.228-.521.694-.828.467-.307 1.22-.307.664 0 1.16.273.5.273.774.816.278.538.278 1.345v4.109h-1.258V37q0-.71-.365-1.102-.366-.395-1.018-.395-.446 0-.799.189-.349.19-.55.555-.199.362-.199.875zm5.871 3.835v-6.46h1.257v6.46zm.635-7.456q-.328 0-.564-.218-.231-.223-.231-.53 0-.311.231-.53.236-.223.564-.223.328 0 .559.223.235.219.235.53 0 .307-.235.53-.231.218-.56.218zm7.153 2.574-1.14.201q-.072-.218-.227-.416-.152-.197-.412-.324-.261-.126-.652-.126-.534 0-.892.24-.357.235-.357.61 0 .323.24.521t.773.324l1.026.235q.892.206 1.33.635.436.43.436 1.115 0 .58-.336 1.034-.332.45-.93.706-.592.257-1.374.257-1.085 0-1.77-.463-.686-.466-.842-1.324l1.216-.185q.113.475.466.719.354.24.921.24.618 0 .988-.257.37-.26.37-.635 0-.303-.227-.509-.222-.206-.685-.31l-1.093-.24q-.904-.207-1.338-.657-.428-.45-.428-1.14 0-.571.32-1 .319-.429.882-.668.564-.244 1.291-.244 1.047 0 1.648.454.602.45.795 1.207zm4.318-2.612v-1.118h6.665v1.118h-2.687v7.494H45.39v-7.494zm9.289 3.659v3.835h-1.258v-8.612h1.24v3.204h.08q.228-.521.694-.828.467-.307 1.22-.307.664 0 1.16.273.5.273.774.816.278.538.278 1.345v4.109h-1.258V37q0-.71-.365-1.102-.366-.395-1.018-.395-.446 0-.799.189-.349.19-.55.555-.198.362-.198.875zm8.653 3.965q-.954 0-1.644-.408-.685-.412-1.06-1.156-.37-.749-.37-1.754 0-.992.37-1.749.375-.757 1.043-1.182.673-.424 1.573-.424.547 0 1.06.18.513.181.92.568.408.387.644 1.005.235.614.235 1.493v.446h-5.134v-.942h3.902q0-.496-.201-.88-.202-.386-.568-.609-.362-.223-.85-.223-.53 0-.925.261-.39.256-.605.673-.21.412-.21.895v.736q0 .648.227 1.102.23.454.643.694.412.235.963.235.357 0 .652-.1.294-.106.509-.312.214-.206.328-.509l1.19.215q-.143.526-.513.92-.366.392-.921.61-.551.215-1.258.215zm4.172-.13v-6.46h1.206v1.052h.08q.202-.534.66-.833.459-.302 1.098-.302.648 0 1.085.302.441.303.652.833h.067q.231-.517.736-.824.504-.311 1.202-.311.88 0 1.434.55.56.551.56 1.661v4.332h-1.258v-4.214q0-.656-.357-.95-.357-.294-.854-.294-.614 0-.954.378-.34.374-.34.963v4.117h-1.254v-4.294q0-.525-.328-.845-.328-.32-.853-.32-.358 0-.66.19-.3.185-.484.517-.181.332-.181.77v3.982zm13.245.13q-.954 0-1.644-.408-.685-.412-1.06-1.156-.37-.749-.37-1.754 0-.992.37-1.749.375-.757 1.043-1.182.673-.424 1.573-.424.547 0 1.06.18.513.181.92.568.408.387.644 1.005.235.614.235 1.493v.446h-5.134v-.942h3.902q0-.496-.201-.88-.202-.386-.568-.609-.362-.223-.85-.223-.53 0-.925.261-.39.256-.605.673-.21.412-.21.895v.736q0 .648.227 1.102.23.454.643.694.412.235.963.235.357 0 .652-.1.294-.106.509-.312.214-.206.328-.509l1.19.215q-.143.526-.513.92-.366.392-.921.61-.551.215-1.258.215zm8.566-3.965v3.835h-1.257v-8.612h1.24v3.204h.08q.227-.521.694-.828.467-.307 1.22-.307.664 0 1.16.273.5.273.773.816.278.538.278 1.345v4.109h-1.257V37q0-.71-.366-1.102-.366-.395-1.018-.395-.445 0-.799.189-.349.19-.55.555-.198.362-.198.875zm7.75 3.978q-.614 0-1.11-.228-.497-.23-.787-.668-.286-.437-.286-1.072 0-.547.21-.9t.568-.56q.358-.206.8-.31.44-.106.899-.16l.942-.11q.362-.046.526-.147.164-.1.164-.328v-.03q0-.55-.312-.853-.307-.303-.916-.303-.635 0-1.001.282-.362.278-.5.618l-1.182-.269q.21-.589.614-.95.408-.366.938-.53.53-.168 1.114-.168.387 0 .82.092.437.088.816.328.382.24.626.686.244.441.244 1.148v4.289h-1.228v-.883h-.05q-.122.243-.366.479-.244.235-.627.391-.382.156-.916.156zm.273-1.01q.521 0 .891-.206.375-.206.568-.538.198-.336.198-.719v-.833q-.068.068-.261.127-.19.054-.433.096-.244.038-.475.072l-.387.05q-.366.046-.669.156-.298.11-.48.315-.176.202-.176.538 0 .467.345.707.345.235.879.235zm9.427-4.015-1.14.201q-.07-.218-.226-.416-.152-.197-.412-.324-.26-.126-.652-.126-.534 0-.891.24-.358.235-.358.61 0 .323.24.521t.774.324l1.026.235q.891.206 1.328.635.438.43.438 1.115 0 .58-.337 1.034-.332.45-.93.706-.592.257-1.374.257-1.085 0-1.77-.463-.686-.466-.841-1.324l1.215-.185q.113.475.467.719.353.24.92.24.619 0 .989-.257.37-.26.37-.635 0-.303-.227-.509-.223-.206-.686-.31l-1.093-.24q-.904-.207-1.337-.657-.43-.45-.43-1.14 0-.571.32-1 .32-.429.883-.668.564-.244 1.291-.244 1.047 0 1.649.454.601.45.794 1.207zM36.058 52.343v3.835H34.8V49.72h1.207v1.051h.08q.223-.513.698-.824.48-.31 1.207-.31.66 0 1.156.277.496.273.77.815.273.543.273 1.342v4.108h-1.257v-3.957q0-.702-.366-1.097-.366-.4-1.005-.4-.437 0-.778.19-.336.189-.534.555-.193.361-.193.874zm8.536 3.965q-.909 0-1.586-.416t-1.05-1.165q-.375-.748-.375-1.749 0-1.005.374-1.758.374-.752 1.051-1.169.677-.416 1.586-.416.908 0 1.585.416.677.417 1.051 1.17.374.752.374 1.757 0 1-.374 1.75-.374.748-1.051 1.164-.677.416-1.585.416zm.004-1.055q.589 0 .975-.311.387-.311.572-.829.19-.517.19-1.14 0-.617-.19-1.134-.185-.522-.572-.837-.386-.316-.975-.316-.593 0-.984.316-.387.315-.576.837-.185.517-.185 1.135 0 .622.185 1.14.19.517.576.828.391.311.984.311zm7.544.925V49.72h1.257v6.46zm.635-7.455q-.328 0-.564-.219-.231-.223-.231-.53 0-.311.231-.53.236-.223.564-.223.328 0 .559.223.235.219.235.53 0 .307-.235.53-.231.219-.56.219zm2.313 7.455V49.72h1.206v1.051h.08q.202-.534.66-.832.459-.303 1.098-.303.647 0 1.085.303.441.303.651.832h.068q.23-.517.735-.824.505-.31 1.203-.31.879 0 1.434.55.56.55.56 1.661v4.331h-1.258v-4.213q0-.656-.357-.95-.358-.295-.854-.295-.614 0-.955.378-.34.375-.34.963v4.117h-1.253v-4.293q0-.526-.328-.845-.328-.32-.854-.32-.357 0-.66.19-.299.184-.484.516-.18.333-.18.77v3.982zm12.34.143q-.613 0-1.11-.227-.495-.231-.786-.669-.286-.437-.286-1.072 0-.547.21-.9.211-.353.568-.559.358-.206.8-.311.44-.105.9-.16l.941-.11q.362-.046.526-.146.164-.101.164-.328v-.03q0-.55-.311-.853-.307-.303-.917-.303-.635 0-1 .281-.363.278-.501.619l-1.182-.27q.21-.588.614-.95.408-.366.938-.53.53-.168 1.114-.168.387 0 .82.093.437.088.816.328.382.24.626.685.244.442.244 1.148v4.29H69.39v-.884h-.05q-.122.244-.366.48-.244.235-.626.39-.383.156-.917.156zm.274-1.01q.522 0 .892-.205.374-.206.567-.538.198-.337.198-.72v-.832q-.067.067-.26.126-.19.055-.434.097-.244.038-.475.071l-.387.05q-.366.047-.668.156-.299.11-.48.316-.176.202-.176.538 0 .467.344.706.345.236.88.236zM75 58.735q-.77 0-1.325-.202-.55-.202-.9-.534-.349-.332-.521-.728l1.08-.445q.114.185.303.39.194.211.522.358.332.147.853.147.715 0 1.182-.349.467-.345.467-1.101V55h-.08q-.114.206-.328.458-.21.252-.58.437t-.963.185q-.766 0-1.38-.357-.61-.362-.967-1.064-.353-.706-.353-1.737 0-1.03.35-1.766.352-.736.966-1.127.614-.395 1.392-.395.601 0 .971.202.37.198.576.463.21.264.324.466h.093V49.72h1.232v6.602q0 .833-.387 1.367t-1.047.79q-.656.257-1.48.257zm-.013-3.696q.543 0 .917-.253.378-.256.572-.731.197-.48.197-1.148 0-.652-.193-1.148-.193-.497-.568-.774-.374-.282-.925-.282-.567 0-.946.295-.378.29-.572.79-.189.5-.189 1.119 0 .635.193 1.114.194.48.572.748.383.27.942.27zm7.397 1.269q-.955 0-1.644-.407-.686-.413-1.06-1.157-.37-.748-.37-1.753 0-.993.37-1.75.374-.756 1.043-1.181.673-.425 1.572-.425.547 0 1.06.181.513.18.921.568.408.386.643 1.005.236.614.236 1.492v.446H80.02v-.942h3.902q0-.496-.202-.879-.202-.386-.568-.61-.361-.222-.85-.222-.529 0-.924.26-.391.257-.606.673-.21.412-.21.896v.736q0 .647.227 1.102.231.454.643.693.412.236.963.236.358 0 .652-.101.294-.105.509-.311.214-.206.328-.51l1.19.215q-.143.526-.513.921-.366.391-.921.61-.55.214-1.257.214z" />
</svg>